<svg width="24" height="24" viewBox="0 0 24 24" fill="none" xmlns="http://www.w3.org/2000/svg">
<g id="Icon/Delete">
<g id="Union">
<path d="M8.5 17.5L8 8.5H9.6L10.1 17.5H8.5Z" fill="currentColor"/>
<path d="M11.2 17.5V8.5H12.8V17.5H11.2Z" fill="currentColor"/>
<path d="M14.4 8.5L13.9 17.5H15.5L16 8.5H14.4Z" fill="currentColor"/>
<path fill-rule="evenodd" clip-rule="evenodd" d="M16 21H8C6.684 21 5.55 20.0873 5.55 18.705L4.8 6.5H4.25C3.83579 6.5 3.5 6.16421 3.5 5.75C3.5 5.33579 3.83579 5 4.25 5H8.5V4C8.5 3.58596 8.6472 3.24496 8.9504 2.94492C9.252 2.64567 9.6816 2.5 10.1 2.5H13.9C14.3184 2.5 14.748 2.64567 15.0496 2.94492C15.3528 3.24496 15.5 3.58596 15.5 4V5H19.75C20.1642 5 20.5 5.33579 20.5 5.75C20.5 6.16421 20.1642 6.5 19.75 6.5H19.2L18.45 18.705C18.45 20.0873 17.316 21 16 21ZM10 5V4H14V5H10ZM7.15 18.705L6.4 6.5H17.6L16.85 18.705C16.85 19.2244 16.444 19.5767 16 19.4967H8C7.556 19.5767 7.15 19.2244 7.15 18.705Z" fill="currentColor"/>
</g>
</g>
</svg>
