<svg width="20" height="20" viewBox="0 0 20 20" fill="none" xmlns="http://www.w3.org/2000/svg">
    <g id="Icon/Copier">
        <g id="Union">
            <path d="M15 2.25C16.5188 2.25 17.75 3.48122 17.75 5V13C17.75 14.5188 16.5188 15.75 15 15.75H14.75V14.25H15C15.6904 14.25 16.25 13.6904 16.25 13V5C16.25 4.30964 15.6904 3.75 15 3.75H9C8.30964 3.75 7.75 4.30964 7.75 5V5.25H6.25V5C6.25 3.48122 7.48122 2.25 9 2.25H15Z"
                  fill="currentColor"/>
            <path d="M12 6H6C4.89543 6 4 6.89543 4 8V16C4 17.1046 4.89543 18 6 18H12C13.1046 18 14 17.1046 14 16V8C14 6.89543 13.1046 6 12 6Z"
                  stroke="currentColor" stroke-width="1.5"/>
        </g>
    </g>
</svg>
