<svg width="14" height="14" viewBox="0 0 14 14" fill="none" xmlns="http://www.w3.org/2000/svg">
<path d="M7 1C10.3137 1 13 3.68629 13 7C13 10.3137 10.3137 13 7 13C3.68629 13 1 10.3137 1 7C1 3.68629 3.68629 1 7 1ZM9.85352 4.14648C9.68265 3.97562 9.41869 3.95387 9.22461 4.08203L9.14648 4.14648L7 6.29297L4.85352 4.14648L4.77539 4.08203C4.58131 3.95387 4.31735 3.97562 4.14648 4.14648C3.97562 4.31735 3.95387 4.58131 4.08203 4.77539L4.14648 4.85352L6.29297 7L4.14648 9.14648C3.95122 9.34175 3.95122 9.65825 4.14648 9.85352C4.34175 10.0488 4.65825 10.0488 4.85352 9.85352L7 7.70703L9.14648 9.85352L9.22461 9.91797C9.41869 10.0461 9.68265 10.0244 9.85352 9.85352C10.0244 9.68265 10.0461 9.41869 9.91797 9.22461L9.85352 9.14648L7.70703 7L9.85352 4.85352L9.91797 4.77539C10.0461 4.58131 10.0244 4.31735 9.85352 4.14648Z" fill="#0571F7"/>
</svg>
