<svg width="24" height="24" viewBox="0 0 24 24" fill="none" xmlns="http://www.w3.org/2000/svg">
    <path d="M12 4.00024C16.4183 4.00024 20 7.58197 20 12.0002C19.9999 16.4184 16.4182 20.0002 12 20.0002C7.5819 20.0001 4.00013 16.4183 4 12.0002C4 7.58204 7.58182 4.00036 12 4.00024ZM12 5.50024C8.41025 5.50036 5.5 8.41046 5.5 12.0002C5.50013 15.5899 8.41033 18.5001 12 18.5002C15.5898 18.5002 18.4999 15.59 18.5 12.0002C18.5 8.41039 15.5899 5.50024 12 5.50024ZM12 14.2502C12.5523 14.2502 13 14.698 13 15.2502C12.9999 15.8024 12.5522 16.2502 12 16.2502C11.4479 16.2501 11.0001 15.8023 11 15.2502C11 14.698 11.4478 14.2504 12 14.2502ZM12 7.78345C12.4418 7.78345 12.7998 8.14142 12.7998 8.58325V12.3333C12.7998 12.7751 12.4418 13.1331 12 13.1331C11.5583 13.1329 11.2002 12.775 11.2002 12.3333V8.58325C11.2002 8.1415 11.5583 7.78356 12 7.78345Z"
          fill="currentColor"/>
</svg>
