<svg width="24" height="24" viewBox="0 0 24 24" fill="none" xmlns="http://www.w3.org/2000/svg">
    <path d="M11.9998 13.7C12.9387 13.7 13.6998 12.9389 13.6998 12C13.6998 11.0612 12.9387 10.3 11.9998 10.3C11.0609 10.3 10.2998 11.0612 10.2998 12C10.2998 12.9389 11.0609 13.7 11.9998 13.7Z"
          fill="currentColor"/>
    <path d="M11.9998 6.99998C12.9387 6.99998 13.6998 6.23886 13.6998 5.29998C13.6998 4.36109 12.9387 3.59998 11.9998 3.59998C11.0609 3.59998 10.2998 4.36109 10.2998 5.29998C10.2998 6.23886 11.0609 6.99998 11.9998 6.99998Z"
          fill="currentColor"/>
    <path d="M11.9998 20.4C12.9387 20.4 13.6998 19.6389 13.6998 18.7C13.6998 17.7611 12.9387 17 11.9998 17C11.0609 17 10.2998 17.7611 10.2998 18.7C10.2998 19.6389 11.0609 20.4 11.9998 20.4Z"
          fill="currentColor"/>
</svg>
