<svg width="20" height="20" viewBox="0 0 20 20" fill="none" xmlns="http://www.w3.org/2000/svg">
<g id="Icons">
<path id="Stroke" fill-rule="evenodd" clip-rule="evenodd" d="M10 19C14.9706 19 19 14.9706 19 10C19 5.02944 14.9706 1 10 1C5.02944 1 1 5.02944 1 10C1 14.9706 5.02944 19 10 19ZM8.65383 5.19038C8.90766 5.44423 8.90766 5.85579 8.65381 6.10962L7.21895 7.54443H11.2139C11.6837 7.54443 12.1486 7.63865 12.5819 7.82141C13.0153 8.00416 13.4082 8.2717 13.7387 8.60817C14.0692 8.94462 14.3307 9.34341 14.5089 9.78147C14.6871 10.2195 14.7787 10.6886 14.7787 11.1621C14.7787 11.6356 14.6871 12.1047 14.5089 12.5427C14.3307 12.9808 14.0692 13.3796 13.7387 13.716C13.4082 14.0525 13.0153 14.32 12.5819 14.5028C12.1486 14.6855 11.6837 14.7798 11.2139 14.7798H9.3858C9.02682 14.7798 8.7358 14.4888 8.7358 14.1298C8.7358 13.7708 9.02682 13.4798 9.3858 13.4798H11.2139C11.5097 13.4798 11.8028 13.4205 12.0768 13.305C12.3507 13.1894 12.6004 13.0198 12.8112 12.8051C13.0221 12.5904 13.19 12.3349 13.3047 12.0528C13.4195 11.7708 13.4787 11.4681 13.4787 11.1621C13.4787 10.8561 13.4195 10.5534 13.3047 10.2714C13.19 9.98932 13.0221 9.73381 12.8112 9.51911C12.6004 9.30443 12.3507 9.13478 12.0768 9.01925C11.8028 8.90373 11.5097 8.84443 11.2139 8.84443H7.22039L8.65381 10.2778C8.90766 10.5316 8.90766 10.9432 8.65383 11.197C8.39999 11.4509 7.98844 11.4509 7.73459 11.1971L5.19078 8.65334C5.06888 8.53144 5.00039 8.36611 5.00039 8.19371C5.00039 8.02132 5.06888 7.85598 5.19078 7.73408L7.73459 5.19037C7.98844 4.93653 8.39999 4.93654 8.65383 5.19038Z" fill="#0571F7"/>
</g>
</svg>
