<svg width="24" height="24" viewBox="0 0 24 24" fill="none" xmlns="http://www.w3.org/2000/svg">
<g id="Icon/Search">
<path id="Search" fill-rule="evenodd" clip-rule="evenodd" d="M10.6559 4.60612C7.31468 4.60612 4.60612 7.31468 4.60612 10.6559C4.60612 13.997 7.31468 16.7056 10.6559 16.7056C13.997 16.7056 16.7056 13.997 16.7056 10.6559C16.7056 7.31468 13.997 4.60612 10.6559 4.60612ZM3 10.6559C3 6.42764 6.42764 3 10.6559 3C14.8841 3 18.3117 6.42764 18.3117 10.6559C18.3117 12.4807 17.6733 14.1564 16.6075 15.4718L20.4321 19.2964C20.7458 19.6101 20.7458 20.1185 20.4321 20.4321C20.1185 20.7458 19.6101 20.7458 19.2964 20.4321L15.4718 16.6075C14.1564 17.6733 12.4807 18.3117 10.6559 18.3117C6.42764 18.3117 3 14.8841 3 10.6559Z" fill="currentColor"/>
</g>
</svg>
