<svg width="20" height="20" viewBox="0 0 20 20" fill="none" xmlns="http://www.w3.org/2000/svg">
<g id="Group 146">
<g id="Vector">
<path d="M10 6.75C11.795 6.75 13.25 8.20501 13.25 10C13.25 11.795 11.795 13.25 10 13.25C8.20501 13.25 6.75 11.795 6.75 10C6.75 8.20501 8.20501 6.75 10 6.75Z" stroke="currentColor" stroke-width="1.5" stroke-linecap="round" stroke-linejoin="round"/>
<path d="M10 6.75C11.795 6.75 13.25 8.20501 13.25 10C13.25 11.795 11.795 13.25 10 13.25C8.20501 13.25 6.75 11.795 6.75 10C6.75 8.20501 8.20501 6.75 10 6.75Z" stroke="currentColor" stroke-width="1.5" stroke-linecap="round" stroke-linejoin="round"/>
<path d="M10 6.75C11.795 6.75 13.25 8.20501 13.25 10C13.25 11.795 11.795 13.25 10 13.25C8.20501 13.25 6.75 11.795 6.75 10C6.75 8.20501 8.20501 6.75 10 6.75Z" stroke="currentColor" stroke-width="1.5" stroke-linecap="round" stroke-linejoin="round"/>
</g>
<g id="Vector_2">
<path d="M18.75 10.7822C18.7498 11.1235 18.5188 11.4219 18.1885 11.5078L16.6406 11.9092L16.0801 13.2627L16.9717 14.3154C17.224 14.6131 17.2064 15.0541 16.9307 15.3301L15.3301 16.9307C15.0835 17.1769 14.7061 17.217 14.417 17.0449L14.2988 16.958C14.2984 16.9576 14.2977 16.9568 14.2969 16.9561C14.295 16.9544 14.2918 16.9516 14.2881 16.9482C14.2806 16.9415 14.2692 16.9317 14.2549 16.9189C14.2262 16.8933 14.1847 16.8557 14.1338 16.8105C14.0318 16.72 13.8921 16.5973 13.7422 16.4668C13.5824 16.3277 13.4207 16.1898 13.2822 16.0742L11.918 16.6387L11.5273 18.1846C11.4429 18.5172 11.143 18.75 10.7998 18.75H9.2002C8.85671 18.75 8.55676 18.5166 8.47266 18.1836L8.08203 16.6387L6.75977 16.0947L5.67383 16.9814C5.37568 17.2244 4.942 17.2024 4.66992 16.9307L3.06934 15.3301C2.78853 15.049 2.77561 14.5974 3.04004 14.3008L3.93652 13.2939L3.37012 11.9512L1.80273 11.5234C1.47653 11.4344 1.25 11.1379 1.25 10.7998V9.2002C1.25 8.8518 1.48991 8.5491 1.8291 8.46973L3.34961 8.11426L3.90039 6.75977L3.01758 5.67285C2.7755 5.37468 2.79792 4.94164 3.06934 4.66992L4.66992 3.06934L4.78223 2.97656C5.06078 2.78955 5.43858 2.80909 5.69824 3.04004L6.70801 3.9375L8.04785 3.37207L8.45996 1.80957L8.50195 1.69043C8.62173 1.42593 8.88663 1.25009 9.18457 1.25H10.748L10.874 1.26074C11.1604 1.30935 11.3979 1.52125 11.4736 1.80957L11.876 3.34375L13.2725 3.91797L14.3125 3.03027L14.4307 2.94727C14.7185 2.78408 15.0879 2.82739 15.3301 3.06934L16.9307 4.66992C17.2061 4.94569 17.2244 5.38689 16.9727 5.68457L16.0869 6.73047L16.6465 8.08105L18.1846 8.47266C18.517 8.5572 18.75 8.85716 18.75 9.2002V10.7822Z" stroke="currentColor" stroke-width="1.5" stroke-linecap="round" stroke-linejoin="round"/>
<path d="M18.75 10.7822C18.7498 11.1235 18.5188 11.4219 18.1885 11.5078L16.6406 11.9092L16.0801 13.2627L16.9717 14.3154C17.224 14.6131 17.2064 15.0541 16.9307 15.3301L15.3301 16.9307C15.0835 17.1769 14.7061 17.217 14.417 17.0449L14.2988 16.958C14.2984 16.9576 14.2977 16.9568 14.2969 16.9561C14.295 16.9544 14.2918 16.9516 14.2881 16.9482C14.2806 16.9415 14.2692 16.9317 14.2549 16.9189C14.2262 16.8933 14.1847 16.8557 14.1338 16.8105C14.0318 16.72 13.8921 16.5973 13.7422 16.4668C13.5824 16.3277 13.4207 16.1898 13.2822 16.0742L11.918 16.6387L11.5273 18.1846C11.4429 18.5172 11.143 18.75 10.7998 18.75H9.2002C8.85671 18.75 8.55676 18.5166 8.47266 18.1836L8.08203 16.6387L6.75977 16.0947L5.67383 16.9814C5.37568 17.2244 4.942 17.2024 4.66992 16.9307L3.06934 15.3301C2.78853 15.049 2.77561 14.5974 3.04004 14.3008L3.93652 13.2939L3.37012 11.9512L1.80273 11.5234C1.47653 11.4344 1.25 11.1379 1.25 10.7998V9.2002C1.25 8.8518 1.48991 8.5491 1.8291 8.46973L3.34961 8.11426L3.90039 6.75977L3.01758 5.67285C2.7755 5.37468 2.79792 4.94164 3.06934 4.66992L4.66992 3.06934L4.78223 2.97656C5.06078 2.78955 5.43858 2.80909 5.69824 3.04004L6.70801 3.9375L8.04785 3.37207L8.45996 1.80957L8.50195 1.69043C8.62173 1.42593 8.88663 1.25009 9.18457 1.25H10.748L10.874 1.26074C11.1604 1.30935 11.3979 1.52125 11.4736 1.80957L11.876 3.34375L13.2725 3.91797L14.3125 3.03027L14.4307 2.94727C14.7185 2.78408 15.0879 2.82739 15.3301 3.06934L16.9307 4.66992C17.2061 4.94569 17.2244 5.38689 16.9727 5.68457L16.0869 6.73047L16.6465 8.08105L18.1846 8.47266C18.517 8.5572 18.75 8.85716 18.75 9.2002V10.7822Z" stroke="currentColor" stroke-width="1.5" stroke-linecap="round" stroke-linejoin="round"/>
<path d="M18.75 10.7822C18.7498 11.1235 18.5188 11.4219 18.1885 11.5078L16.6406 11.9092L16.0801 13.2627L16.9717 14.3154C17.224 14.6131 17.2064 15.0541 16.9307 15.3301L15.3301 16.9307C15.0835 17.1769 14.7061 17.217 14.417 17.0449L14.2988 16.958C14.2984 16.9576 14.2977 16.9568 14.2969 16.9561C14.295 16.9544 14.2918 16.9516 14.2881 16.9482C14.2806 16.9415 14.2692 16.9317 14.2549 16.9189C14.2262 16.8933 14.1847 16.8557 14.1338 16.8105C14.0318 16.72 13.8921 16.5973 13.7422 16.4668C13.5824 16.3277 13.4207 16.1898 13.2822 16.0742L11.918 16.6387L11.5273 18.1846C11.4429 18.5172 11.143 18.75 10.7998 18.75H9.2002C8.85671 18.75 8.55676 18.5166 8.47266 18.1836L8.08203 16.6387L6.75977 16.0947L5.67383 16.9814C5.37568 17.2244 4.942 17.2024 4.66992 16.9307L3.06934 15.3301C2.78853 15.049 2.77561 14.5974 3.04004 14.3008L3.93652 13.2939L3.37012 11.9512L1.80273 11.5234C1.47653 11.4344 1.25 11.1379 1.25 10.7998V9.2002C1.25 8.8518 1.48991 8.5491 1.8291 8.46973L3.34961 8.11426L3.90039 6.75977L3.01758 5.67285C2.7755 5.37468 2.79792 4.94164 3.06934 4.66992L4.66992 3.06934L4.78223 2.97656C5.06078 2.78955 5.43858 2.80909 5.69824 3.04004L6.70801 3.9375L8.04785 3.37207L8.45996 1.80957L8.50195 1.69043C8.62173 1.42593 8.88663 1.25009 9.18457 1.25H10.748L10.874 1.26074C11.1604 1.30935 11.3979 1.52125 11.4736 1.80957L11.876 3.34375L13.2725 3.91797L14.3125 3.03027L14.4307 2.94727C14.7185 2.78408 15.0879 2.82739 15.3301 3.06934L16.9307 4.66992C17.2061 4.94569 17.2244 5.38689 16.9727 5.68457L16.0869 6.73047L16.6465 8.08105L18.1846 8.47266C18.517 8.5572 18.75 8.85716 18.75 9.2002V10.7822Z" stroke="currentColor" stroke-width="1.5" stroke-linecap="round" stroke-linejoin="round"/>
</g>
</g>
</svg>
