<svg width="24" height="24" viewBox="0 0 24 24" fill="none" xmlns="http://www.w3.org/2000/svg">
<g id="Icon/Clear">
<path id="Remove3" fill-rule="evenodd" clip-rule="evenodd" d="M12 23C18.0751 23 23 18.0751 23 12C23 5.92487 18.0751 1 12 1C5.92487 1 1 5.92487 1 12C1 18.0751 5.92487 23 12 23ZM16.4964 7.50357C16.7745 7.78169 16.7745 8.2326 16.4964 8.51071L13.0071 12L16.4964 15.4893C16.7745 15.7674 16.7745 16.2183 16.4964 16.4964C16.2183 16.7745 15.7674 16.7745 15.4893 16.4964L12 13.0071L8.51071 16.4964C8.2326 16.7745 7.78169 16.7745 7.50357 16.4964C7.22546 16.2183 7.22546 15.7674 7.50357 15.4893L10.9929 12L7.50357 8.51071C7.22546 8.2326 7.22546 7.78169 7.50357 7.50357C7.78169 7.22546 8.2326 7.22546 8.51071 7.50357L12 10.9929L15.4893 7.50357C15.7674 7.22546 16.2183 7.22546 16.4964 7.50357Z" fill="#0571F7"/>
</g>
</svg>
