<svg width="24" height="24" viewBox="0 0 24 24" fill="none" xmlns="http://www.w3.org/2000/svg">
<g id="Icon/Clear">
<path id="Vector" d="M12 1C5.92545 1 1 5.92545 1 12C1 18.0746 5.92545 23 12 23C18.0746 23 23 18.0746 23 12C23 5.92545 18.0746 1 12 1ZM16.0612 16.179L14.4406 16.1717L12 13.2621L9.56183 16.1692L7.93884 16.1766C7.8308 16.1766 7.74241 16.0906 7.74241 15.9801C7.74241 15.9335 7.7596 15.8893 7.78906 15.8525L10.9835 12.0467L7.78906 8.2433C7.75939 8.20732 7.74293 8.16226 7.74241 8.11562C7.74241 8.00759 7.8308 7.9192 7.93884 7.9192L9.56183 7.92656L12 10.8362L14.4382 7.92902L16.0587 7.92165C16.1667 7.92165 16.2551 8.00759 16.2551 8.11808C16.2551 8.16473 16.2379 8.20893 16.2085 8.24576L13.019 12.0491L16.2109 15.8549C16.2404 15.8917 16.2576 15.9359 16.2576 15.9826C16.2576 16.0906 16.1692 16.179 16.0612 16.179Z" fill="#0571F7"/>
</g>
</svg>
