<svg width="20" height="20" viewBox="0 0 20 20" fill="none" xmlns="http://www.w3.org/2000/svg">
    <path d="M9.14298 3.42895C9.5315 2.78193 10.4695 2.78172 10.8578 3.42895L18.0912 15.4856C18.4911 16.1521 18.0111 17.0002 17.2338 17.0002H2.76603C1.98891 17.0001 1.50889 16.152 1.9086 15.4856L9.14298 3.42895ZM10.0004 13.2502C9.44812 13.2502 9.0004 13.698 9.0004 14.2502C9.00055 14.8024 9.44821 15.2502 10.0004 15.2502C10.5524 15.25 11.0002 14.8023 11.0004 14.2502C11.0004 13.6981 10.5525 13.2504 10.0004 13.2502ZM10.0004 6.78344C9.55857 6.78344 9.2006 7.14142 9.2006 7.58325V11.3332C9.20061 11.7751 9.55858 12.1331 10.0004 12.1331C10.442 12.1329 10.8002 11.7749 10.8002 11.3332V7.58325C10.8002 7.14154 10.4421 6.78364 10.0004 6.78344Z"
          fill="currentColor"/>
</svg>
