<svg width="306" height="306" viewBox="0 0 306 306" fill="none" xmlns="http://www.w3.org/2000/svg">
<path d="M171.869 167.236V232.244C171.869 242.646 163.402 251.112 153.001 251.112C142.6 251.112 134.133 242.646 134.133 232.244V226.756H106.689V232.244C106.689 257.781 127.465 278.556 153.001 278.556C178.538 278.556 198.833 258.241 199.292 233.102H199.313V134.132H171.869V167.236Z" fill="#0064FA"/>
<path d="M153.001 27.4443C127.465 27.4443 106.689 48.2194 106.689 73.7561V171.868H134.133V73.7561C134.133 63.3548 142.6 54.8883 153.001 54.8883C163.402 54.8883 171.869 63.3548 171.869 73.7561V79.2449H199.313V73.7561C199.313 48.2194 178.538 27.4443 153.001 27.4443Z" fill="#0064FA"/>
<path d="M232.245 79.2446H134.133V106.689H232.245C257.782 106.689 278.557 127.464 278.557 153C278.557 178.537 257.782 199.312 232.245 199.312H226.756V226.756H232.245C272.979 226.756 306.001 193.734 306.001 153C306.001 112.267 272.979 79.2446 232.245 79.2446Z" fill="#3385FF"/>
<path d="M134.133 226.756H171.868V199.312H73.7557C48.2191 199.312 27.444 178.537 27.444 153C27.444 127.464 48.2191 106.689 73.7557 106.689H79.2445V79.2446H73.7557C33.022 79.2446 0 112.267 0 153C0 193.734 33.022 226.756 73.7557 226.756H134.133Z" fill="#3385FF"/>
<path d="M171.868 134.133H232.245C242.646 134.133 251.113 142.6 251.113 153.001C251.113 163.402 242.646 171.869 232.245 171.869H226.756V199.313H232.245C257.782 199.313 278.557 178.538 278.557 153.001C278.557 127.464 257.782 106.689 232.245 106.689H134.133V134.133H171.868Z" fill="#0064FA"/>
<path d="M134.138 171.869H73.761C63.3597 171.869 54.8932 163.402 54.8932 153.001C54.8932 142.6 63.3597 134.133 73.761 134.133H79.2498V106.689H73.761C48.2243 106.689 27.4492 127.464 27.4492 153.001C27.4492 178.538 48.2243 199.313 73.761 199.313H171.873V171.869H134.138Z" fill="#0064FA"/>
<path d="M79.2441 134.133V171.868H106.688V73.7557C106.688 48.2191 127.463 27.444 153 27.444C178.537 27.444 199.312 48.2191 199.312 73.7557V79.2445H226.756V73.7557C226.756 33.022 193.734 0 153 0C112.266 0 79.2441 33.022 79.2441 73.7557V134.133Z" fill="#3385FF"/>
<path d="M226.756 171.868V134.132H199.312V233.102H199.291C198.831 258.241 178.248 278.556 153 278.556C127.751 278.556 106.688 257.781 106.688 232.244V226.756H79.2441V232.244C79.2441 272.978 112.266 306 153 306C193.734 306 226.282 273.438 226.742 233.102H226.756V171.868Z" fill="#3385FF"/>
</svg>
